<svg width="746" height="739" viewBox="0 0 746 739" fill="none" xmlns="http://www.w3.org/2000/svg">
<circle cx="372.58" cy="304.99" r="47.36" fill="#F15A22"/>
<circle cx="372.58" cy="440.22" r="47.36" fill="#F15A22"/>
<circle cx="301.58" cy="372.99" r="47.36" fill="#F15A22"/>
<circle cx="443.07" cy="372.99" r="47.36" fill="#F15A22"/>
<path d="M534.46 279.003C586.047 340.553 586.034 402.104 534.422 463.655" stroke="#141A46" stroke-width="24" stroke-linecap="round"/>
<path d="M210.634 463.968C159.046 402.417 159.06 340.864 210.674 279.313" stroke="#141A46" stroke-width="24" stroke-linecap="round"/>
<path d="M280.676 208.92C342.764 157.779 404.855 157.792 466.944 208.96" stroke="#141A46" stroke-width="24" stroke-linecap="round"/>
<path d="M464.168 529.154C402.077 580.295 339.989 580.284 277.9 529.117" stroke="#141A46" stroke-width="24" stroke-linecap="round"/>
<path d="M589.517 221.062C668.525 319.598 669.245 418.704 591.674 518.378" stroke="#141A46" stroke-width="24" stroke-linecap="round"/>
<path d="M155.575 521.913C76.5679 423.376 75.8509 324.271 153.419 224.6" stroke="#141A46" stroke-width="24" stroke-linecap="round"/>
<path d="M222.23 154.339C321.628 76.019 421.599 75.3055 522.142 152.201" stroke="#141A46" stroke-width="24" stroke-linecap="round"/>
<path d="M522.613 583.741C423.216 662.064 323.244 662.778 222.702 585.882" stroke="#141A46" stroke-width="24" stroke-linecap="round"/>
<path d="M648.129 167.038C760.923 302.013 761.426 437.405 649.636 573.22" stroke="#141A46" stroke-width="24" stroke-linecap="round"/>
<path d="M96.9727 575.932C-15.8211 440.959 -16.3243 305.565 95.4629 169.752" stroke="#141A46" stroke-width="24" stroke-linecap="round"/>
<path d="M167.74 96.2385C303.892 -15.5783 440.469 -16.0772 577.471 94.7418" stroke="#141A46" stroke-width="24" stroke-linecap="round"/>
<path d="M577.112 641.841C440.959 753.658 304.382 754.154 167.38 643.335" stroke="#141A46" stroke-width="24" stroke-linecap="round"/>
</svg>
