<svg width="746" height="739" viewBox="0 0 746 739" fill="none" xmlns="http://www.w3.org/2000/svg">
<mask id="mask0_485_874" style="mask-type:luminance" maskUnits="userSpaceOnUse" x="325" y="258" width="95" height="94">
<path d="M325.223 258.039H419.937V351.933H325.223V258.039Z" fill="white"/>
</mask>
<g mask="url(#mask0_485_874)">
<mask id="mask1_485_874" style="mask-type:luminance" maskUnits="userSpaceOnUse" x="325" y="258" width="95" height="94">
<path d="M372.581 258.039C346.427 258.039 325.223 279.058 325.223 304.985C325.223 330.914 346.427 351.933 372.581 351.933C398.735 351.933 419.937 330.914 419.937 304.985C419.937 279.058 398.735 258.039 372.581 258.039Z" fill="white"/>
</mask>
<g mask="url(#mask1_485_874)">
<mask id="mask2_485_874" style="mask-type:luminance" maskUnits="userSpaceOnUse" x="324" y="257" width="97" height="96">
<path d="M420.498 257.736H324.91V352.496H420.498V257.736Z" fill="white"/>
</mask>
<g mask="url(#mask2_485_874)">
<mask id="mask3_485_874" style="mask-type:luminance" maskUnits="userSpaceOnUse" x="325" y="258" width="95" height="94">
<path d="M325.223 258.039H419.937V351.933H325.223V258.039Z" fill="white"/>
</mask>
<g mask="url(#mask3_485_874)">
<mask id="mask4_485_874" style="mask-type:luminance" maskUnits="userSpaceOnUse" x="325" y="258" width="95" height="94">
<path d="M372.581 258.039C346.427 258.039 325.223 279.058 325.223 304.985C325.223 330.914 346.427 351.933 372.581 351.933C398.735 351.933 419.937 330.914 419.937 304.985C419.937 279.058 398.735 258.039 372.581 258.039Z" fill="white"/>
</mask>
<g mask="url(#mask4_485_874)">
<path d="M325.223 258.039H419.937V351.933H325.223V258.039Z" fill="#EC8B5E"/>
</g>
</g>
</g>
</g>
</g>
<mask id="mask5_485_874" style="mask-type:luminance" maskUnits="userSpaceOnUse" x="325" y="393" width="95" height="95">
<path d="M325.223 393.277H419.937V487.171H325.223V393.277Z" fill="white"/>
</mask>
<g mask="url(#mask5_485_874)">
<mask id="mask6_485_874" style="mask-type:luminance" maskUnits="userSpaceOnUse" x="325" y="393" width="95" height="95">
<path d="M372.581 393.277C346.427 393.277 325.223 414.296 325.223 440.225C325.223 466.153 346.427 487.171 372.581 487.171C398.735 487.171 419.937 466.153 419.937 440.225C419.937 414.296 398.735 393.277 372.581 393.277Z" fill="white"/>
</mask>
<g mask="url(#mask6_485_874)">
<mask id="mask7_485_874" style="mask-type:luminance" maskUnits="userSpaceOnUse" x="324" y="393" width="97" height="95">
<path d="M420.498 393.009H324.91V487.769H420.498V393.009Z" fill="white"/>
</mask>
<g mask="url(#mask7_485_874)">
<mask id="mask8_485_874" style="mask-type:luminance" maskUnits="userSpaceOnUse" x="325" y="393" width="95" height="95">
<path d="M325.223 393.277H419.937V487.171H325.223V393.277Z" fill="white"/>
</mask>
<g mask="url(#mask8_485_874)">
<mask id="mask9_485_874" style="mask-type:luminance" maskUnits="userSpaceOnUse" x="325" y="393" width="95" height="95">
<path d="M372.581 393.277C346.427 393.277 325.223 414.296 325.223 440.225C325.223 466.153 346.427 487.171 372.581 487.171C398.735 487.171 419.937 466.153 419.937 440.225C419.937 414.296 398.735 393.277 372.581 393.277Z" fill="white"/>
</mask>
<g mask="url(#mask9_485_874)">
<path d="M325.223 393.277H419.937V487.171H325.223V393.277Z" fill="#EC8B5E"/>
</g>
</g>
</g>
</g>
</g>
<mask id="mask10_485_874" style="mask-type:luminance" maskUnits="userSpaceOnUse" x="254" y="326" width="95" height="94">
<path d="M254.223 326.039H348.937V419.933H254.223V326.039Z" fill="white"/>
</mask>
<g mask="url(#mask10_485_874)">
<mask id="mask11_485_874" style="mask-type:luminance" maskUnits="userSpaceOnUse" x="254" y="326" width="95" height="94">
<path d="M301.581 326.039C275.425 326.039 254.223 347.058 254.223 372.985C254.223 398.912 275.425 419.933 301.581 419.933C327.735 419.933 348.937 398.912 348.937 372.985C348.937 347.058 327.735 326.039 301.581 326.039Z" fill="white"/>
</mask>
<g mask="url(#mask11_485_874)">
<mask id="mask12_485_874" style="mask-type:luminance" maskUnits="userSpaceOnUse" x="254" y="325" width="96" height="96">
<path d="M349.036 325.744H254.141V420.504H349.036V325.744Z" fill="white"/>
</mask>
<g mask="url(#mask12_485_874)">
<mask id="mask13_485_874" style="mask-type:luminance" maskUnits="userSpaceOnUse" x="254" y="326" width="95" height="94">
<path d="M254.223 326.039H348.937V419.933H254.223V326.039Z" fill="white"/>
</mask>
<g mask="url(#mask13_485_874)">
<mask id="mask14_485_874" style="mask-type:luminance" maskUnits="userSpaceOnUse" x="254" y="326" width="95" height="94">
<path d="M301.581 326.039C275.425 326.039 254.223 347.058 254.223 372.985C254.223 398.912 275.425 419.933 301.581 419.933C327.735 419.933 348.937 398.912 348.937 372.985C348.937 347.058 327.735 326.039 301.581 326.039Z" fill="white"/>
</mask>
<g mask="url(#mask14_485_874)">
<path d="M254.223 326.039H348.937V419.933H254.223V326.039Z" fill="#EC8B5E"/>
</g>
</g>
</g>
</g>
</g>
<mask id="mask15_485_874" style="mask-type:luminance" maskUnits="userSpaceOnUse" x="395" y="326" width="96" height="94">
<path d="M395.711 326.039H490.425V419.933H395.711V326.039Z" fill="white"/>
</mask>
<g mask="url(#mask15_485_874)">
<mask id="mask16_485_874" style="mask-type:luminance" maskUnits="userSpaceOnUse" x="395" y="326" width="96" height="94">
<path d="M443.067 326.039C416.913 326.039 395.711 347.058 395.711 372.985C395.711 398.912 416.913 419.933 443.067 419.933C469.223 419.933 490.425 398.912 490.425 372.985C490.425 347.058 469.223 326.039 443.067 326.039Z" fill="white"/>
</mask>
<g mask="url(#mask16_485_874)">
<mask id="mask17_485_874" style="mask-type:luminance" maskUnits="userSpaceOnUse" x="395" y="325" width="97" height="96">
<path d="M491.033 325.744H395.445V420.504H491.033V325.744Z" fill="white"/>
</mask>
<g mask="url(#mask17_485_874)">
<mask id="mask18_485_874" style="mask-type:luminance" maskUnits="userSpaceOnUse" x="395" y="326" width="96" height="94">
<path d="M395.711 326.039H490.425V419.933H395.711V326.039Z" fill="white"/>
</mask>
<g mask="url(#mask18_485_874)">
<mask id="mask19_485_874" style="mask-type:luminance" maskUnits="userSpaceOnUse" x="395" y="326" width="96" height="94">
<path d="M443.067 326.039C416.913 326.039 395.711 347.058 395.711 372.985C395.711 398.912 416.913 419.933 443.067 419.933C469.223 419.933 490.425 398.912 490.425 372.985C490.425 347.058 469.223 326.039 443.067 326.039Z" fill="white"/>
</mask>
<g mask="url(#mask19_485_874)">
<path d="M395.711 326.039H490.425V419.933H395.711V326.039Z" fill="#EC8B5E"/>
</g>
</g>
</g>
</g>
</g>
<path d="M534.46 279.003C586.047 340.553 586.034 402.104 534.422 463.655" stroke="#141A46" stroke-width="24" stroke-linecap="round"/>
<path d="M210.634 463.968C159.046 402.417 159.06 340.864 210.674 279.313" stroke="#141A46" stroke-width="24" stroke-linecap="round"/>
<path d="M280.676 208.92C342.764 157.779 404.855 157.792 466.944 208.96" stroke="#141A46" stroke-width="24" stroke-linecap="round"/>
<path d="M464.168 529.154C402.077 580.295 339.989 580.284 277.9 529.117" stroke="#141A46" stroke-width="24" stroke-linecap="round"/>
<path d="M589.517 221.062C668.525 319.598 669.245 418.704 591.674 518.378" stroke="#141A46" stroke-width="24" stroke-linecap="round"/>
<path d="M155.575 521.913C76.5679 423.376 75.8509 324.271 153.419 224.6" stroke="#141A46" stroke-width="24" stroke-linecap="round"/>
<path d="M222.23 154.339C321.628 76.019 421.599 75.3055 522.142 152.201" stroke="#141A46" stroke-width="24" stroke-linecap="round"/>
<path d="M522.613 583.741C423.216 662.064 323.244 662.778 222.702 585.882" stroke="#141A46" stroke-width="24" stroke-linecap="round"/>
<path d="M648.129 167.038C760.923 302.013 761.426 437.405 649.636 573.22" stroke="#141A46" stroke-width="24" stroke-linecap="round"/>
<path d="M96.9727 575.932C-15.8211 440.959 -16.3243 305.565 95.4629 169.752" stroke="#141A46" stroke-width="24" stroke-linecap="round"/>
<path d="M167.74 96.2385C303.892 -15.5783 440.469 -16.0772 577.471 94.7418" stroke="#141A46" stroke-width="24" stroke-linecap="round"/>
<path d="M577.112 641.841C440.959 753.658 304.382 754.154 167.38 643.335" stroke="#141A46" stroke-width="24" stroke-linecap="round"/>
</svg>
